<svg width="3400" height="2127" xmlns="http://www.w3.org/2000/svg" xmlns:xlink="http://www.w3.org/1999/xlink" overflow="hidden"><defs><clipPath id="clip0"><rect x="651" y="202" width="3400" height="2127"/></clipPath></defs><g clip-path="url(#clip0)" transform="translate(-651 -202)"><rect x="1726.5" y="204.5" width="1275" height="598" stroke="#000000" stroke-width="4.58333" stroke-miterlimit="8" fill="#FFFFFF"/><text font-family="DengXian,DengXian_MSFontService,sans-serif" font-weight="400" font-size="83" transform="matrix(1 0 0 1 2262.06 566)">ISGLB</text><rect x="1853.5" y="659.5" width="1023" height="143" stroke="#507E32" stroke-width="4.58333" stroke-miterlimit="8" fill="#70AD47"/><text fill="#FFFFFF" font-family="DengXian,DengXian_MSFontService,sans-serif" font-weight="400" font-size="83" transform="matrix(1 0 0 1 2145.02 758)">NATS<tspan font-size="83" x="198.229" y="0">-</tspan>GRPC<tspan fill="#4472C4" font-size="83" x="-134.756" y="1270">Statistic Information</tspan></text><rect x="726.5" y="1350.5" width="1274" height="976" stroke="#000000" stroke-width="4.58333" stroke-miterlimit="8" fill="#FFFFFF"/><text font-family="DengXian,DengXian_MSFontService,sans-serif" font-weight="400" font-size="83" transform="matrix(1 0 0 1 1290.57 1641)">SXU</text><rect x="851.5" y="1350.5" width="1024" height="143" stroke="#507E32" stroke-width="4.58333" stroke-miterlimit="8" fill="#70AD47"/><text fill="#FFFFFF" font-family="DengXian,DengXian_MSFontService,sans-serif" font-weight="400" font-size="83" transform="matrix(1 0 0 1 1143.61 1449)">NATS-GRPC</text><rect x="775.5" y="1703.5" width="1176" height="596" stroke="#787878" stroke-width="4.58333" stroke-miterlimit="8" fill="#A5A5A5"/><text fill="#FFFFFF" font-family="DengXian,DengXian_MSFontService,sans-serif" font-weight="400" font-size="83" transform="matrix(1 0 0 1 1152.49 1796)">Sender Side</text><rect x="827.5" y="1859.5" width="1072" height="417" stroke="#AE5A21" stroke-width="4.58333" stroke-miterlimit="8" fill="#ED7D31"/><text fill="#FFFFFF" font-family="DengXian,DengXian_MSFontService,sans-serif" font-weight="400" font-size="83" transform="matrix(1 0 0 1 1029.6 1953)">Custom<tspan font-size="83" x="295.625" y="0">TrackLoca</tspan><tspan font-size="83" x="648.542" y="0">l</tspan></text><rect x="927.5" y="1985.5" width="872" height="268" stroke="#2F528F" stroke-width="4.58333" stroke-miterlimit="8" fill="#4472C4"/><text fill="#FFFFFF" font-family="DengXian,DengXian_MSFontService,sans-serif" font-weight="700" font-size="83" transform="matrix(1 0 0 1 976.896 2097)">TODO<tspan font-weight="400" font-size="83" x="229.167" y="0">:</tspan><tspan font-weight="400" font-size="83" x="269.844" y="0">A self</tspan><tspan font-weight="400" font-size="83" x="463.49" y="0">-</tspan><tspan font-weight="400" font-size="83" x="504.74" y="0">defined </tspan><tspan font-weight="400" font-size="83" x="191.354" y="99">interceptor</tspan></text><path d="M904 1494.5 954.5 1545 929.25 1545 929.25 1653 954.5 1653 904 1703.5 853.5 1653 878.75 1653 878.75 1545 853.5 1545Z" stroke="#2F528F" stroke-width="4.58333" stroke-miterlimit="8" fill="#4472C4" fill-rule="evenodd"/><path d="M1702.5 1578 1790 1490.5 1877.5 1578 1833.75 1578 1833.75 1857.5 1746.25 1857.5 1746.25 1578Z" stroke="#2F528F" stroke-width="4.58333" stroke-miterlimit="8" fill="#4472C4" fill-rule="evenodd"/><text fill="#4472C4" font-family="DengXian,DengXian_MSFontService,sans-serif" font-weight="400" font-size="83" transform="matrix(1 0 0 1 941.449 1623)">Status</text><rect x="2726.5" y="1350.5" width="1275" height="976" stroke="#000000" stroke-width="4.58333" stroke-miterlimit="8" fill="#FFFFFF"/><text font-family="DengXian,DengXian_MSFontService,sans-serif" font-weight="400" font-size="83" transform="matrix(1 0 0 1 3291.41 1641)">SXU</text><rect x="2852.5" y="1350.5" width="1023" height="143" stroke="#507E32" stroke-width="4.58333" stroke-miterlimit="8" fill="#70AD47"/><text fill="#FFFFFF" font-family="DengXian,DengXian_MSFontService,sans-serif" font-weight="400" font-size="83" transform="matrix(1 0 0 1 3144.46 1449)">NATS<tspan font-size="83" x="198.229" y="0">-</tspan>GRPC</text><rect x="2776.5" y="1703.5" width="1176" height="596" stroke="#787878" stroke-width="4.58333" stroke-miterlimit="8" fill="#A5A5A5"/><text fill="#FFFFFF" font-family="DengXian,DengXian_MSFontService,sans-serif" font-weight="400" font-size="83" transform="matrix(1 0 0 1 3128.99 1796)">Receiver Side</text><rect x="2828.5" y="1859.5" width="1072" height="417" stroke="#AE5A21" stroke-width="4.58333" stroke-miterlimit="8" fill="#ED7D31"/><text fill="#FFFFFF" font-family="DengXian,DengXian_MSFontService,sans-serif" font-weight="400" font-size="83" transform="matrix(1 0 0 1 2955.69 2046)">RTPReceiver<tspan font-size="83" x="432.552" y="0">.ReadRTCP</tspan><tspan font-size="83" x="-71.9124" y="99">PeerConnection</tspan><tspan font-size="83" x="492.41" y="99">.WriteRTCP</tspan></text><path d="M3826.5 1494.5 3876.5 1544.5 3851.5 1544.5 3851.5 1653.5 3876.5 1653.5 3826.5 1703.5 3776.5 1653.5 3801.5 1653.5 3801.5 1544.5 3776.5 1544.5Z" stroke="#2F528F" stroke-width="4.58333" stroke-miterlimit="8" fill="#4472C4" fill-rule="evenodd"/><path d="M2852.5 1582 2940 1494.5 3027.5 1582 2983.75 1582 2983.75 1861.5 2896.25 1861.5 2896.25 1582Z" stroke="#2F528F" stroke-width="4.58333" stroke-miterlimit="8" fill="#4472C4" fill-rule="evenodd"/><text fill="#4472C4" font-family="DengXian,DengXian_MSFontService,sans-serif" font-weight="400" font-size="83" transform="matrix(1 0 0 1 3572.68 1623)">Status</text><path d="M1786 1036 2024.5 1036 2024.5 882 1986 882 2063 805 2140 882 2101.5 882 2101.5 1113 1786 1113Z" fill="#4472C4" fill-rule="evenodd"/><path d="M1963 1113.25 1724.88 1113.25 1724.88 1267.75 1763.5 1267.75 1686.25 1345 1609 1267.75 1647.62 1267.75 1647.62 1036 1963 1036Z" fill="#4472C4" fill-rule="evenodd"/><path d="M0 231 238.5 231 238.5 77.0001 200 77.0001 277 0 354 77.0001 315.5 77.0001 315.5 308 0 308Z" fill="#4472C4" fill-rule="evenodd" transform="matrix(-1 0 0 1 2941 805)"/><path d="M0 231.75 238.125 231.75 238.125 77.2502 199.5 77.2502 276.75 0 354 77.2502 315.375 77.2502 315.375 309 0 309Z" fill="#4472C4" fill-rule="evenodd" transform="matrix(1 -1.22465e-16 -1.22465e-16 -1 2764 1345)"/><rect x="1775.5" y="250.5" width="1177" height="217" stroke="#787878" stroke-width="4.58333" stroke-miterlimit="8" fill="#A5A5A5"/><text fill="#FFFFFF" font-family="DengXian,DengXian_MSFontService,sans-serif" font-weight="400" font-size="83" transform="matrix(1 0 0 1 1925.18 386)">Path<tspan font-size="83" x="180.469" y="0">Selection</tspan><tspan font-size="83" x="523.073" y="0">Algorith</tspan><tspan font-size="83" x="807.24" y="0">m</tspan><tspan fill="#4472C4" font-size="83" x="330.562" y="619">Status</tspan><tspan fill="#4472C4" font-size="83" x="407.332" y="718">&amp;</tspan><tspan fill="#4472C4" font-size="83" x="85.0783" y="817">Statistic Information</tspan></text><path d="M1826.5 554.5 1913.5 467.5 2000.5 554.5 1957 554.5 1957 661.5 1870 661.5 1870 554.5Z" stroke="#2F528F" stroke-width="4.58333" stroke-miterlimit="8" fill="#4472C4" fill-rule="evenodd"/><path d="M2876.5 574 2789 661.5 2701.5 574 2745.25 574 2745.25 467.5 2832.75 467.5 2832.75 574Z" stroke="#2F528F" stroke-width="4.58333" stroke-miterlimit="8" fill="#4472C4" fill-rule="evenodd"/><text fill="#4472C4" font-family="DengXian,DengXian_MSFontService,sans-serif" font-weight="400" font-size="83" transform="matrix(1 0 0 1 1624.83 539)">Status<tspan font-size="83" x="-490.99" y="99">Statistic Information</tspan><tspan font-size="83" x="1236.2" y="16">Status</tspan></text><path d="M1899.5 2121.5 1986.5 2034.5 1986.5 2078 2741.5 2078 2741.5 2034.5 2828.5 2121.5 2741.5 2208.5 2741.5 2165 1986.5 2165 1986.5 2208.5Z" stroke="#2F528F" stroke-width="4.58333" stroke-miterlimit="8" fill="#4472C4" fill-rule="evenodd"/><text fill="#4472C4" font-family="DengXian,DengXian_MSFontService,sans-serif" font-weight="400" font-size="83" transform="matrix(1 0 0 1 2012.88 1644)">Statistic Information</text></g></svg>