<svg width="2879" height="1857" xmlns="http://www.w3.org/2000/svg" xmlns:xlink="http://www.w3.org/1999/xlink" overflow="hidden"><defs><clipPath id="clip0"><rect x="949" y="511" width="2879" height="1857"/></clipPath></defs><g clip-path="url(#clip0)" transform="translate(-949 -511)"><rect x="1563.5" y="514.5" width="1274" height="1173" stroke="#000000" stroke-width="4.58333" stroke-miterlimit="8" fill="#FFFFFF"/><text font-family="DengXian,DengXian_MSFontService,sans-serif" font-weight="400" font-size="83" transform="matrix(1 0 0 1 2127.53 805)">SXU</text><rect x="1688.5" y="514.5" width="1024" height="143" stroke="#507E32" stroke-width="4.58333" stroke-miterlimit="8" fill="#70AD47"/><text fill="#FFFFFF" font-family="DengXian,DengXian_MSFontService,sans-serif" font-weight="400" font-size="83" transform="matrix(1 0 0 1 1980.57 613)">NATS<tspan font-size="83" x="198.229" y="0">-</tspan>GRPC</text><rect x="1563.5" y="2054.5" width="1274" height="281" stroke="#000000" stroke-width="4.58333" stroke-miterlimit="8" fill="#FFFFFF"/><text font-family="DengXian,DengXian_MSFontService,sans-serif" font-weight="400" font-size="83" transform="matrix(1 0 0 1 2099.17 2296)">Client</text><path d="M1688.5 1775 1776 1687.5 1863.5 1775 1819.75 1775 1819.75 2054.5 1732.25 2054.5 1732.25 1775Z" stroke="#2F528F" stroke-width="4.58333" stroke-miterlimit="8" fill="#4472C4" fill-rule="evenodd"/><text fill="#4472C4" font-family="DengXian,DengXian_MSFontService,sans-serif" font-weight="400" font-size="73" transform="matrix(1 0 0 1 1395.8 1786)">Request:<tspan font-size="73" x="0" y="88">SID: XX</tspan></text><path d="M1688.5 745 1776 657.5 1863.5 745 1819.75 745 1819.75 1544.5 1732.25 1544.5 1732.25 745Z" stroke="#2F528F" stroke-width="4.58333" stroke-miterlimit="8" fill="#4472C4" fill-rule="evenodd"/><text font-family="DengXian,DengXian_MSFontService,sans-serif" font-weight="400" font-size="83" transform="matrix(1 0 0 1 1212.95 1381)">Update Status</text><rect x="1612.5" y="867.5" width="1176" height="371" stroke="#787878" stroke-width="4.58333" stroke-miterlimit="8" fill="#A5A5A5"/><text fill="#FFFFFF" font-family="DengXian,DengXian_MSFontService,sans-serif" font-weight="400" font-size="83" transform="matrix(1 0 0 1 1937.03 961)">Status Updater</text><rect x="2307.5" y="1024.5" width="530" height="416" stroke="#AE5A21" stroke-width="4.58333" stroke-miterlimit="8" fill="#ED7D31"/><text fill="#FFFFFF" font-family="DengXian,DengXian_MSFontService,sans-serif" font-weight="400" font-size="83" transform="matrix(1 0 0 1 2411.66 1259)">ION<tspan font-size="83" x="143.229" y="0">-</tspan>SFU<tspan fill="#000000" font-size="55" x="-1428.89" y="742">Send request and wait for reply</tspan><tspan fill="#000000" font-size="83" x="-1116.21" y="-433">Send Status</tspan></text><path d="M2712.5 941 2625 1028.5 2537.5 941 2581.25 941 2581.25 657.5 2668.75 657.5 2668.75 941Z" stroke="#2F528F" stroke-width="4.58333" stroke-miterlimit="8" fill="#4472C4" fill-rule="evenodd"/><text font-family="DengXian,DengXian_MSFontService,sans-serif" font-weight="400" font-size="83" transform="matrix(1 0 0 1 2688.71 764)">Receive Status<tspan font-size="83" x="0" y="168">Update Status</tspan></text><path d="M2298.5 1967 2211 2054.5 2123.5 1967 2167.25 1967 2167.25 1237.5 2254.75 1237.5 2254.75 1967Z" stroke="#2F528F" stroke-width="4.58333" stroke-miterlimit="8" fill="#4472C4" fill-rule="evenodd"/><rect x="1688.5" y="1544.5" width="1024" height="143" stroke="#507E32" stroke-width="4.58333" stroke-miterlimit="8" fill="#70AD47"/><text fill="#FFFFFF" font-family="DengXian,DengXian_MSFontService,sans-serif" font-weight="400" font-size="83" transform="matrix(1 0 0 1 1985.44 1643)">HTTP<tspan font-size="83" x="188.49" y="0">-</tspan><tspan font-size="83" x="229.74" y="0">GRPC</tspan><tspan fill="#000000" font-size="55" x="291.431" y="287">Reply</tspan><tspan fill="#4472C4" font-size="73" x="291.431" y="132">Response:</tspan><tspan fill="#4472C4" font-size="73" x="291.431" y="220">SDP msg: XX</tspan></text><path d="M2775 1440.5 2825.5 1491 2800.25 1491 2800.25 2004 2825.5 2004 2775 2054.5 2724.5 2004 2749.75 2004 2749.75 1491 2724.5 1491Z" stroke="#AE5A21" stroke-width="4.58333" stroke-miterlimit="8" fill="#ED7D31" fill-rule="evenodd"/><text fill="#ED7D31" font-family="DengXian,DengXian_MSFontService,sans-serif" font-weight="400" font-size="73" transform="matrix(1 0 0 1 2840.71 1891)">WebRTC connect</text><rect x="1563.5" y="2058.5" width="744" height="143" stroke="#507E32" stroke-width="4.58333" stroke-miterlimit="8" fill="#70AD47"/><text fill="#FFFFFF" font-family="DengXian,DengXian_MSFontService,sans-serif" font-weight="400" font-size="83" transform="matrix(1 0 0 1 1720.39 2157)">HTTP<tspan font-size="83" x="188.49" y="0">-</tspan><tspan font-size="83" x="229.74" y="0">GRPC</tspan></text><rect x="2307.5" y="2057.5" width="530" height="144" stroke="#AE5A21" stroke-width="4.58333" stroke-miterlimit="8" fill="#ED7D31"/><text fill="#FFFFFF" font-family="DengXian,DengXian_MSFontService,sans-serif" font-weight="400" font-size="83" transform="matrix(1 0 0 1 2367.84 2156)">ion<tspan font-size="83" x="111.146" y="0">-</tspan>sdk<tspan font-size="83" x="272.708" y="0">-</tspan>go<tspan fill="#FF0000" font-size="83" x="-680.968" y="-75">Step 1</tspan><tspan fill="#FF0000" font-size="83" x="-263.401" y="-76">Step 2</tspan><tspan fill="#FF0000" font-size="83" x="292.97" y="-76">Step 3</tspan></text></g></svg>